<?xml version="1.0" encoding="utf-8"?>
<!-- Generator: Adobe Illustrator 22.1.0, SVG Export Plug-In . SVG Version: 6.00 Build 0)  -->
<svg version="1.1" id="Слой_1" xmlns="http://www.w3.org/2000/svg" xmlns:xlink="http://www.w3.org/1999/xlink" x="0px" y="0px"
	 viewBox="0 0 1200 600" style="enable-background:new 0 0 1200 600;" xml:space="preserve">
<style type="text/css">
	.st0{fill:#CCFFFF;}
	.st1{fill:#99FFFF;}
	.st2{fill:#66FFFF;}
	.st3{fill:#33FFFF;}
	.st4{fill:#B4EFF6;}
	.st5{fill:none;}
</style>
<path class="st0" d="M965.9,306.7C944,311,923,303,901,300c-18-2-33,12-49,7c-29-8-55-20-85-24c-67.7-9-136-10.1-200.7-34.1
	c-26.4-9.8-53.6-12.1-81.4-12.9c-15.9-0.5-31.7,2.3-47.5-1.1c-16.2-3.5-31.6-10.6-48.1-12.8c-14.3-1.8-28.8,0.2-42.9,3
	c-11,2.2-21.8,8.6-33.1,8.3c-15.3-0.3-30.4-0.9-45.4-4.4c-35-8-74-11-98,20c-2,1-5,1-7.4,2.3c-3.5,0.6-7.2,1.1-10.9,1.7
	c-29.8,4.4-59.3,10.7-87.6,19.6c-13.7,4.3-27.2,9.3-40.2,14.9c-1.3,0.5-14.9,6.7-23.9,9.8V600h1200V301.4
	c-22.4,8.9-46.9,14.8-72.4,18.6c-3.6,0.5-7.1,1-9.3,1c-18.4-13-35.4-35-61.4-27c-28,9-56,15-85.1,12.6
	C969.9,306.6,967.8,306.6,965.9,306.7z"/>
<path class="st1" d="M971.4,350c-10.4-2-21.4-6-31.4-1c-11,6-19,15-31,16c-18,1-34-11-51-13c-65-7-127-23-183-63c-5-3-10-4-15-4
	c-28-5-55-9-83-12c-18-3-36,5-54-1c-33-10-67-2-100-3c-4,0-9,0-13-4c-29.9-32.2-70.2-18.1-104.1-0.4c-3.1,1.6-6.1,3.2-9.1,4.9
	c-16.2,7.2-32.8,13.8-49.9,18.8c-3.4,1-6.9,1.9-10.3,2.8C231,292,224,294,218,293c-18-6-35-15-55.2-13.9c-3.6,0.4-7.3,0.9-11.1,1.4
	c-29.8,4.1-59.3,9.8-87.6,18c-13.7,4-27.2,8.5-40.2,13.7c-1.3,0.5-14.9,6.2-23.9,9V600h1200V325c-22.4,8.2-46.9,13.7-72.4,17.1
	c-3.6,0.5-6.9,1-9.2,1.9c-32.5,49-97.5,35-139,8.8C976.7,351.9,974.1,350.9,971.4,350z"/>
<path class="st2" d="M963.8,383.6c-2.2-0.7-4.4-1.3-6.7-1.7c-15-3.3-27.2,1.4-41.8,1.6c-10.8,0.1-22.1-4.5-33-5.4
	c-31.8-2.8-63.3-6.3-94.7-10.6c-3.1-0.4-4.7-1.5-6.7-2.6C766,353,748,345,728,343c-10-1-20,3-30,1c-7-1.4-13.9-2.6-20.8-3.6
	c-3.4-0.5-6.9-1-10.3-1.4c-21.8-12.2-46.6-14.5-70.8-18.1c-9.7-1.4-17.8-5.1-27.1-7.2c-11.8-2.7-23.8-1.3-35.6-5
	c-15.9-5-27.9-16.7-44.3-19.2c-19.5-3-38.9-4.9-58.4-0.5c-41.6,9.4-86.7,37.2-130.7,25.3c-12.2-3.3-25.4-9.9-36.5-4.1
	c-3.1,1.6-5.7,4.1-8.4,6.4c-13.4,11-31.4,15.5-48.4,11.1c-6.8-1.8-13-5.2-19.5-7.7c-17.3-6.5-35.5-7.7-49.1,5c-2,3-7,5-11,5.1
	c-3.3,0.9-6.6,1.7-9.8,2.5c-3.3,0.8-6.6,1.5-9.9,2.2c-2.9,0.5-5.8,1-8.8,1.6c-11.6,2.2-23.1,4.6-34.4,7.4
	c-13.7,3.4-27.2,7.2-40.2,11.6c-1.3,0.4-14.9,5.2-23.9,7.6v237h1200c0,0,0-233.7,0-233.7c-18.6,5.8-37.8,9.7-57.1,12.6
	c-16.5,2.4-33.1,1.4-48.2,8.1c-32.4,14.3-68.4,18-102.3,6.9C982.7,390.7,973.4,386.5,963.8,383.6z"/>
<path class="st3" d="M973.2,405.3C964,404,956,402,947,403c-58,13-113,12-170,7c-9-1-19,4-29,1c-16.6-4.2-32.9-9.4-49.1-14.7
	c-12.5-4.1-26.3-14.5-38.9-6.9c-5.6,3.4-10.2,8.2-16.2,11c-13.9,6.4-30.1-0.5-43.6-7.7c-5.8-3.1-11.7-6.3-18-8.3
	c-21.1-6.6-43.6,1.5-65.5,4.9c-30.3,4.7-62-0.1-89.6-13.6c-14.5-7.1-29.2-16.8-45.3-15.2c-11.3,1.1-21.2,7.7-30.2,14.6
	c-9,6.9-17.8,14.5-28.6,18.1c-17.8,6-30.7-7.2-47.9-8.5c-18-1.3-42.1-4.4-59.6,1c-2.1,0.6-4.2,1.5-6.3,2.5
	c-10.5,5.1-17.5,13.3-28.6,16.7c-12.4,3.8-25.8,5.1-38.8,4.2c-19.4-1.3-29.8-5.2-39.9-22.1c-2-3-8-1-12.2-0.5
	c-2.9,0.5-5.8,1-8.6,1.5c-5.7,1-11.4,2.1-17.1,3.2c-13.7,2.8-27.2,5.9-40.2,9.5C22.7,401,9.1,405,0,406.9V600h1200V409.6
	c-35.2,8.9-75.6,13.1-116.7,14.8c-3.7,0.1-4.9-2.6-7.7-4.2c-7.6-5.1-16.6-9.1-25.6-8.1c-22,0-45,6-66-3.2
	C980.5,407.4,977.1,406.3,973.2,405.3z"/>
<path class="st4" d="M984.1,487.7C953,484,926,470,899,458c-54-23-120-48-174-23c-46.4,21-102.7,22.1-133.5-16.8
	c-2.2-2.8-4.3-5.8-6.2-9c-6.3-9.2-18.3-11.2-27.9-7.9c-3.5,1.3-7.1,2.5-10.6,3.6c-46.3,14.3-94.8,10.3-143.8,1.6
	c-3.8-0.7-7.5-1.4-11.3-2.1c-17.7-3.5-37.7-6.5-54.4,1.7c-2.3,1.3-4.4,2.9-6.6,4.6c-6.3,5.3-12.1,12-17.7,19.2
	c-20,25-48-7-70.5-16.2c-3.8,0.1-7.6,0.2-11.4,0.3c-11.4,0.4-22.8,0.8-34.2,1.4c-3.8,0.2-7.6,0.4-11.3,0.6
	c-19.6,2.9-39.6,6.9-60.6,4.6c-3,0.3-5.9,0.6-8.8,0.9c-17.6,1.9-35,4.2-52,7c-13.7,2.3-27.2,4.8-40.2,7.8
	c-1.3,0.3-14.9,3.5-23.9,5.1V600h1200V443.7c-32,6.7-68.3,10.1-105.5,11.7c-3.7,0.2-1.1,0.2-1.6,0.2c-14,33.4-50,49.4-85,31.4
	c-4-2-11,1-16.8,0.9C988.5,488,986.2,487.9,984.1,487.7z"/>
<path class="st5" d="M422.1,129c-4.6,6.7,4.2,15.1,14,16.2c2.4,0.3,4.9,0.2,7.2,0c12.3,4.2,25,3.6,37,2.6c2.3,0.4,4.7,0.7,7,0.9
	c4.5,0.4,9.3,0.7,13.6-0.4c4.3-1.2,8.1-4.1,8.2-7.7c9.1,4.1,20.3,6.3,30.3,3.6c10-2.7,17.5-11.2,14.6-19c6.6-2.4,16.8,0.3,20.2-4.7
	c1.2-1.7,1-3.9,0.2-5.8c-2.1-5.4-8.4-9.7-15.6-10.8c-2.4-0.4-5.2-0.5-6.6-2.1c-1-1.1-0.9-2.6-1.6-3.8c-1.2-1.8-3.9-2.6-6.5-3.2
	c-7.6-1.8-15.3-3.5-23.2-3.3c-7.9,0.3-16.1,3-20,8.3c-1.9-0.5-3.8-1-5.7-1.4c-15-6.3-32.6-12.4-49.3-5c-14.3,6.8-22.3,19-20.1,32
	C425.4,126,423.6,126.8,422.1,129z"/>
</svg>
